<?xml version="1.0" encoding="UTF-8" standalone="no"?>
<!DOCTYPE svg PUBLIC "-//W3C//DTD SVG 1.1//EN" "http://www.w3.org/Graphics/SVG/1.1/DTD/svg11.dtd">
<svg xmlns="http://www.w3.org/2000/svg" xmlns:xlink="http://www.w3.org/1999/xlink" version="1.1" width="100pt" height="30pt" viewBox="0 0 100 30">
<g enable-background="new">
<g id="Layer-1" data-name="Layer">
<path transform="matrix(1,0,0,-1,0,30)" d="M .001 0 L 100 0 L 100 30 L .001 30 Z " fill="#4ea984"/>
<path transform="matrix(1,0,0,-1,0,30)" d="M 97.5 2.334 L 2.5 2.334 L 2.5 27.334 L 97.5 27.334 Z " fill="#4ea984"/>
<path transform="matrix(1,0,0,-1,0,30)" stroke-width="1.3" stroke-linecap="butt" stroke-miterlimit="4" stroke-linejoin="miter" fill="none" stroke="#ffffff" d="M 97.5 2.334 L 2.5 2.334 L 2.5 27.334 L 97.5 27.334 Z "/>
</g>
<text fill="#ffffff" xml:space="preserve" transform="matrix(1 0 -0 1 0 30)" font-size="8" font-family="MicrosoftYaHei"><tspan y="-16.708" x="6.1626 14.1626 22.1626">&#x5df2;&#x6838;&#x51c6;</tspan></text>
<clipPath id="cp0">
<path transform="matrix(.9999929,0,0,-1.0000291,3.20466,27.08738)" d="M 0 0 L 93.591 0 L 93.591 13.034 L 0 13.034 Z "/>
</clipPath>
<g clip-path="url(#cp0)">
<g id="Layer-1" data-name="Tx">
<clipPath id="cp1">
<path transform="matrix(.9999929,0,0,-1.0000291,3.20466,27.08738)" d="M 1 1 L 92.591 1 L 92.591 12.034 L 1 12.034 Z "/>
</clipPath>
<g clip-path="url(#cp1)">
<text xml:space="preserve" transform="matrix(.9999929 0 -0 1.0000291 3.20466 27.08738)" font-size="6.1" font-family="Helvetica" font-weight="bold"><tspan y="-4.40029" x="1 4.7271 8.4542 11.8458 13.5416 15.572901 17.268702 21.672902 25.0645 28.4561 30.829 32.5248 34.2206 37.6122 41.003805 43.035104 46.426706 49.818307 51.849607 55.241209 58.63281 60.32861 62.02441 65.41601 68.80761 72.19921 75.59081 77.28661 80.678218 84.06982 85.76562 89.15722">Foxit User, 15:09:18, 2020/01/07</tspan></text>
</g>
</g>
</g>
</g>
</svg>
