<?xml version="1.0" encoding="UTF-8" standalone="no"?>
<!DOCTYPE svg PUBLIC "-//W3C//DTD SVG 1.1//EN" "http://www.w3.org/Graphics/SVG/1.1/DTD/svg11.dtd">
<svg xmlns="http://www.w3.org/2000/svg" xmlns:xlink="http://www.w3.org/1999/xlink" version="1.1" width="100pt" height="30pt" viewBox="0 0 100 30">
<g enable-background="new">
<g id="Layer-1" data-name="Layer">
<path transform="matrix(1,0,0,-1,0,30)" d="M .001 0 L 100 0 L 100 30 L .001 30 Z " fill="#4ea984"/>
<path transform="matrix(1,0,0,-1,0,30)" d="M 97.5 2.334 L 2.5 2.334 L 2.5 27.334 L 97.5 27.334 Z " fill="#4ea984"/>
<path transform="matrix(1,0,0,-1,0,30)" stroke-width="1.3" stroke-linecap="butt" stroke-miterlimit="4" stroke-linejoin="miter" fill="none" stroke="#ffffff" d="M 97.5 2.334 L 2.5 2.334 L 2.5 27.334 L 97.5 27.334 Z "/>
</g>
<text fill="#ffffff" xml:space="preserve" transform="matrix(1 0 -0 1 0 30)" font-size="8" font-family="MicrosoftYaHei"><tspan y="-17.48192" x="6.435104 14.435104 22.435105">&#x5df2;&#x4fee;&#x8a02;</tspan></text>
<clipPath id="cp0">
<path transform="matrix(.9999941,0,0,-1.0000353,2.97256,27.03046)" d="M 0 0 L 94.055 0 L 94.055 13.02 L 0 13.02 Z "/>
</clipPath>
<g clip-path="url(#cp0)">
<g id="Layer-1" data-name="Tx">
<clipPath id="cp1">
<path transform="matrix(.9999941,0,0,-1.0000353,2.97256,27.03046)" d="M 1 1 L 93.055 1 L 93.055 12.02 L 1 12.02 Z "/>
</clipPath>
<g clip-path="url(#cp1)">
<text xml:space="preserve" transform="matrix(.9999941 0 -0 1.0000353 2.97256 27.03046)" font-size="6.125" font-family="Helvetica" font-weight="bold"><tspan y="-4.38476" x="1 4.742375 8.48475 11.89025 13.593 15.632626 17.335377 21.757628 25.163128 28.568629 30.951254 32.654005 34.356756 37.762254 41.167757 43.20738 46.612878 50.01838 52.058004 55.4635 58.869005 60.571756 62.274507 65.68001 69.08551 72.49101 75.896518 77.599269 81.00477 84.41027 86.11302 89.518527">Foxit User, 15:09:18, 2020/01/07</tspan></text>
</g>
</g>
</g>
</g>
</svg>
