<?xml version="1.0" encoding="utf-8"?>
<!-- Generator: Adobe Illustrator 13.0.0, SVG Export Plug-In . SVG Version: 6.00 Build 14948)  -->
<!DOCTYPE svg PUBLIC "-//W3C//DTD SVG 1.1//EN" "http://www.w3.org/Graphics/SVG/1.1/DTD/svg11.dtd">
<svg version="1.1" id="图层_1" xmlns="http://www.w3.org/2000/svg" xmlns:xlink="http://www.w3.org/1999/xlink" x="0px" y="0px"
	 width="100px" height="30px" viewBox="0 0 100 30" enable-background="new 0 0 100 30" xml:space="preserve">
<rect fill="#2E6DAD" width="100" height="30"/>
<rect x="2.5" y="2.666" fill="#2E6DAD" stroke="#FFFFFF" stroke-width="1.2" width="95" height="25"/>
<g>
	<polygon fill="none" points="32.411,10.809 23.013,10.809 27.25,14.25 	"/>
	<polygon fill="none" points="27.12,15.837 21.404,11.196 21.404,19.893 33.559,19.893 33.559,11.622 27.156,15.891 	"/>
	<path fill="#FFFFFF" d="M33.56,9.496H21.404h-1.313v1.313v9.083v1.313h1.313H33.56h1.313v-1.313v-9.083V9.496H33.56z
		 M32.411,10.809L27.25,14.25l-4.236-3.441H32.411z M33.559,19.893H21.404v-8.697l5.716,4.641l0.036,0.054l6.402-4.269V19.893z"/>
</g>
<g>
	<path fill="#FFFFFF" d="M42.715,12.092h1.008v1.605h7.008v-3.012h-8.449V9.818h9.434v5.461h-0.984v-0.715h-7.008v3.41
		c0,0.719,0.34,1.078,1.02,1.078h5.777c0.672,0,1.078-0.242,1.219-0.727c0.141-0.477,0.246-1.113,0.316-1.91
		c0.305,0.133,0.641,0.25,1.008,0.352c-0.109,0.813-0.227,1.461-0.352,1.945c-0.234,0.883-0.891,1.324-1.969,1.324h-6.234
		c-1.195,0-1.793-0.617-1.793-1.852V12.092z"/>
	<path fill="#FFFFFF" d="M53.52,15.314c0.555-0.152,1.094-0.307,1.617-0.463v-2.678h-1.477V11.33h1.477V9.139h0.867v2.191h1.348
		v0.844h-1.348v2.408c0.371-0.117,0.734-0.236,1.09-0.357c0.008,0.352,0.031,0.656,0.07,0.914c-0.402,0.129-0.789,0.256-1.16,0.381
		v3.615c0,0.844-0.379,1.27-1.137,1.277c-0.289,0.008-0.656,0.004-1.102-0.012c-0.031-0.32-0.078-0.645-0.141-0.973
		c0.469,0.047,0.801,0.07,0.996,0.07c0.344,0,0.516-0.207,0.516-0.621v-3.07c-0.535,0.18-1.035,0.352-1.5,0.516L53.52,15.314z
		 M56.708,19.686c1.523-0.223,2.764-0.59,3.721-1.102c-0.73-0.328-1.514-0.672-2.35-1.031c0.336-0.434,0.646-0.867,0.932-1.301
		h-1.928v-0.785h2.42c0.25-0.422,0.479-0.844,0.686-1.266l0.867,0.363c-0.188,0.313-0.373,0.613-0.557,0.902h4.506v0.785h-1.541
		c-0.309,0.859-0.766,1.584-1.371,2.174c0.996,0.414,1.963,0.826,2.9,1.236l-0.516,0.867c-0.879-0.465-1.914-0.973-3.105-1.523
		c-1.047,0.711-2.453,1.234-4.219,1.57C57.043,20.318,56.895,20.021,56.708,19.686z M57.118,13.24h4.564
		c0.496-0.688,0.936-1.332,1.318-1.934l0.879,0.48c-0.406,0.488-0.818,0.973-1.236,1.453h2.443v0.785h-7.969V13.24z M57.575,10.393
		h3.311c-0.184-0.355-0.377-0.707-0.58-1.055l0.785-0.363c0.25,0.422,0.488,0.848,0.715,1.277l-0.299,0.141h3.299v0.785h-7.23
		V10.393z M58.629,11.775l0.68-0.457c0.367,0.43,0.723,0.883,1.066,1.359l-0.75,0.504C59.329,12.697,58.997,12.229,58.629,11.775z
		 M59.297,17.295c0.652,0.258,1.291,0.516,1.916,0.773c0.613-0.496,1.049-1.102,1.307-1.816h-2.525
		C59.756,16.615,59.524,16.963,59.297,17.295z"/>
	<path fill="#FFFFFF" d="M67.348,15.842v-0.809h7.406v0.832c-0.684,0.988-1.564,1.861-2.643,2.619
		c1.16,0.531,2.846,0.896,5.057,1.096c-0.234,0.32-0.445,0.656-0.633,1.008c-2.293-0.32-4.063-0.842-5.309-1.564
		c-1.242,0.652-2.957,1.197-5.145,1.635c-0.156-0.273-0.34-0.566-0.551-0.879c2.043-0.363,3.656-0.809,4.84-1.336
		c-0.879-0.691-1.617-1.559-2.215-2.602H67.348z M65.93,12.924h7.16c0.395-0.57,0.867-1.371,1.418-2.402l0.926,0.527
		c-0.512,0.746-0.957,1.371-1.336,1.875h2.625v2.402h-0.949v-1.582h-8.895v1.582H65.93V12.924z M66.504,10.592
		c-0.047-0.273-0.102-0.563-0.164-0.867c3.766-0.039,6.973-0.156,9.621-0.352l0.141,0.867
		C72.993,10.404,69.793,10.521,66.504,10.592z M67.079,11.201l0.727-0.445c0.422,0.555,0.789,1.086,1.102,1.594l-0.832,0.48
		C67.762,12.268,67.43,11.725,67.079,11.201z M73.688,15.842h-4.582c0.559,0.844,1.271,1.561,2.139,2.15
		C72.229,17.395,73.043,16.678,73.688,15.842z M70.29,10.99l0.762-0.375c0.383,0.555,0.719,1.121,1.008,1.699l-0.855,0.41
		C70.938,12.131,70.633,11.553,70.29,10.99z"/>
</g>
</svg>
