<?xml version="1.0" encoding="UTF-8" standalone="no"?>
<!DOCTYPE svg PUBLIC "-//W3C//DTD SVG 1.1//EN" "http://www.w3.org/Graphics/SVG/1.1/DTD/svg11.dtd">
<svg xmlns="http://www.w3.org/2000/svg" xmlns:xlink="http://www.w3.org/1999/xlink" version="1.1" width="100pt" height="30pt" viewBox="0 0 100 30">
<g enable-background="new">
<g id="Layer-1" data-name="Layer">
<path transform="matrix(1,0,0,-1,0,30)" d="M .001 0 L 100 0 L 100 30 L .001 30 Z " fill="#4ea984"/>
<path transform="matrix(1,0,0,-1,0,30)" d="M 97.5 2.334 L 2.5 2.334 L 2.5 27.334 L 97.5 27.334 Z " fill="#4ea984"/>
<clipPath id="cp0">
<path transform="matrix(1,0,0,-1,0,30)" d="M 0 30 L 100 30 L 100 0 L 0 0 Z "/>
</clipPath>
<g clip-path="url(#cp0)">
<path transform="matrix(1,0,0,-1,0,30)" stroke-width="1.3" stroke-linecap="butt" stroke-miterlimit="4" stroke-linejoin="miter" fill="none" stroke="#ffffff" d="M 97.5 2.334 L 2.5 2.334 L 2.5 27.334 L 97.5 27.334 Z "/>
<path transform="matrix(1,0,0,-1,11.4756,10.497999)" d="M 0 0 L .849 -.215 C .671 -.913 .351 -1.444 -.112 -1.811 C -.574 -2.177 -1.14 -2.36 -1.808 -2.36 C -2.5 -2.36 -3.063 -2.219 -3.497 -1.938 C -3.93 -1.656 -4.26 -1.249 -4.486 -.714 C -4.712 -.18 -4.825 .394 -4.825 1.007 C -4.825 1.676 -4.698 2.258 -4.442 2.756 C -4.187 3.254 -3.824 3.631 -3.352 3.89 C -2.881 4.148 -2.362 4.277 -1.796 4.277 C -1.153 4.277 -.613 4.114 -.176 3.787 C .263 3.46 .567 3 .739 2.408 L -.097 2.211 C -.246 2.678 -.461 3.018 -.745 3.231 C -1.028 3.444 -1.384 3.55 -1.813 3.55 C -2.306 3.55 -2.718 3.433 -3.05 3.197 C -3.381 2.96 -3.614 2.642 -3.748 2.244 C -3.883 1.845 -3.95 1.434 -3.95 1.011 C -3.95 .465 -3.87 -.011 -3.711 -.418 C -3.552 -.825 -3.305 -1.13 -2.969 -1.331 C -2.633 -1.533 -2.27 -1.633 -1.878 -1.633 C -1.403 -1.633 -1 -1.497 -.67 -1.222 C -.34 -.947 -.117 -.54 0 0 " fill="#ffffff"/>
<path transform="matrix(1,0,0,-1,13.9888,9.6357)" d="M 0 0 C 0 -.774 .208 -1.383 .624 -1.828 C 1.04 -2.273 1.561 -2.496 2.189 -2.496 C 2.829 -2.496 3.354 -2.271 3.767 -1.821 C 4.181 -1.373 4.387 -.734 4.387 .092 C 4.387 .614 4.298 1.071 4.122 1.46 C 3.945 1.85 3.688 2.152 3.347 2.367 C 3.007 2.581 2.625 2.688 2.202 2.688 C 1.601 2.688 1.083 2.482 .65 2.068 C .216 1.656 0 .966 0 0 M -.876 .014 C -.876 1.079 -.59 1.913 -.018 2.516 C .555 3.118 1.293 3.42 2.198 3.42 C 2.79 3.42 3.325 3.278 3.8 2.995 C 4.276 2.712 4.639 2.317 4.888 1.811 C 5.138 1.304 5.263 .729 5.263 .088 C 5.263 -.563 5.131 -1.145 4.869 -1.66 C 4.606 -2.173 4.234 -2.562 3.752 -2.826 C 3.271 -3.09 2.751 -3.223 2.193 -3.223 C 1.589 -3.223 1.049 -3.077 .573 -2.785 C .097 -2.492 -.263 -2.095 -.509 -1.589 C -.753 -1.084 -.876 -.55 -.876 .014 " fill="#ffffff"/>
<path transform="matrix(1,0,0,-1,20.3374,12.749001)" d="M 0 0 L 0 6.419 L .872 6.419 L 4.243 1.379 L 4.243 6.419 L 5.057 6.419 L 5.057 0 L 4.186 0 L .814 5.044 L .814 0 Z " fill="#ffffff"/>
<path transform="matrix(1,0,0,-1,26.8657,12.749001)" d="M 0 0 L 0 6.419 L 4.33 6.419 L 4.33 5.662 L .849 5.662 L .849 3.674 L 3.862 3.674 L 3.862 2.917 L .849 2.917 L .849 0 Z " fill="#ffffff"/>
<path transform="matrix(1,0,0,-1,0,30)" d="M 32.443 23.67 L 33.293 23.67 L 33.293 17.251 L 32.443 17.251 Z " fill="#ffffff"/>
<path transform="matrix(1,0,0,-1,35.6401,11.9911999)" d="M 0 0 L 1.371 0 C 1.794 0 2.125 .04 2.367 .119 C 2.607 .197 2.8 .309 2.942 .451 C 3.144 .652 3.301 .923 3.413 1.264 C 3.526 1.603 3.582 2.015 3.582 2.5 C 3.582 3.172 3.472 3.688 3.251 4.048 C 3.03 4.409 2.763 4.65 2.448 4.772 C 2.22 4.86 1.854 4.904 1.349 4.904 L 0 4.904 Z M -.849 -.758 L -.849 5.662 L 1.362 5.662 C 1.861 5.662 2.242 5.631 2.504 5.57 C 2.872 5.485 3.186 5.331 3.446 5.11 C 3.785 4.824 4.038 4.458 4.206 4.013 C 4.374 3.567 4.458 3.059 4.458 2.487 C 4.458 2 4.4 1.567 4.287 1.19 C 4.172 .814 4.027 .503 3.848 .256 C 3.67 .009 3.476 -.184 3.265 -.327 C 3.052 -.468 2.797 -.575 2.498 -.648 C 2.199 -.721 1.855 -.758 1.467 -.758 Z " fill="#ffffff"/>
<path transform="matrix(1,0,0,-1,41.2837,12.749001)" d="M 0 0 L 0 6.419 L 4.641 6.419 L 4.641 5.662 L .85 5.662 L .85 3.696 L 4.4 3.696 L 4.4 2.942 L .85 2.942 L .85 .758 L 4.791 .758 L 4.791 0 Z " fill="#ffffff"/>
<path transform="matrix(1,0,0,-1,47.2383,12.749001)" d="M 0 0 L 0 6.419 L .872 6.419 L 4.242 1.379 L 4.242 6.419 L 5.058 6.419 L 5.058 0 L 4.186 0 L .815 5.044 L .815 0 Z " fill="#ffffff"/>
<path transform="matrix(1,0,0,-1,55.3564,12.749001)" d="M 0 0 L 0 5.662 L -2.114 5.662 L -2.114 6.419 L 2.973 6.419 L 2.973 5.662 L .85 5.662 L .85 0 Z " fill="#ffffff"/>
<path transform="matrix(1,0,0,-1,0,30)" d="M 59.345 23.67 L 60.195 23.67 L 60.195 17.251 L 59.345 17.251 Z " fill="#ffffff"/>
<path transform="matrix(1,0,0,-1,62.8369,10.112301)" d="M 0 0 L 2.178 0 L 1.508 1.777 C 1.304 2.317 1.153 2.761 1.054 3.108 C .972 2.696 .856 2.288 .708 1.882 Z M -1.849 -2.637 L .614 3.783 L 1.53 3.783 L 4.157 -2.637 L 3.188 -2.637 L 2.439 -.692 L -.242 -.692 L -.947 -2.637 Z " fill="#ffffff"/>
<path transform="matrix(1,0,0,-1,67.6367,12.749001)" d="M 0 0 L 0 6.419 L .851 6.419 L .851 .758 L 4.011 .758 L 4.011 0 Z " fill="#ffffff"/>
</g>
</g>
<clipPath id="cp1">
<path transform="matrix(1.0000001,0,0,-.9999976,4.26829,26.34517)" d="M 0 0 L 91.9969 0 L 91.9969 12.4112 L 0 12.4112 Z "/>
</clipPath>
<g clip-path="url(#cp1)">
<g id="Layer-1" data-name="Tx">
<clipPath id="cp2">
<path transform="matrix(1.0000001,0,0,-.9999976,4.26829,26.34517)" d="M 1 1 L 90.9969 1 L 90.9969 11.4112 L 1 11.4112 Z "/>
</clipPath>
<g clip-path="url(#cp2)">
<text fill="#ffffff" xml:space="preserve" transform="matrix(1.0000001 0 -0 .9999976 4.26829 26.34517)" font-size="4" font-family="Helvetica" font-weight="bold"><tspan y="-4.81759" x="1 3.444 5.888 8.112 9.224001 10.556001 11.668001 14.556002 16.780003 19.004004 20.560004 21.672003 22.784003 23.896002 26.120003 28.344004 29.676005 31.900006 34.124006 35.456007 37.680006 39.904005 41.016004 42.128004 44.352 46.576 47.688 49.912 52.135999 53.247999 55.471998 57.695997 59.919996">Foxit User , 11:58:58, 12/03/2014</tspan></text>
</g>
</g>
</g>
</g>
</svg>
