<?xml version="1.0" encoding="UTF-8" standalone="no"?>
<!DOCTYPE svg PUBLIC "-//W3C//DTD SVG 1.1//EN" "http://www.w3.org/Graphics/SVG/1.1/DTD/svg11.dtd">
<svg xmlns="http://www.w3.org/2000/svg" xmlns:xlink="http://www.w3.org/1999/xlink" version="1.1" width="100pt" height="30pt" viewBox="0 0 100 30">
<g enable-background="new">
<g id="Layer-1" data-name="Layer">
<path transform="matrix(1,0,0,-1,0,30)" d="M .001 0 L 100 0 L 100 30 L .001 30 Z " fill="#4ea984"/>
<path transform="matrix(1,0,0,-1,0,30)" d="M 97.5 2.334 L 2.5 2.334 L 2.5 27.334 L 97.5 27.334 Z " fill="#4ea984"/>
<clipPath id="cp0">
<path transform="matrix(1,0,0,-1,0,30)" d="M 0 30 L 100 30 L 100 0 L 0 0 Z "/>
</clipPath>
<g clip-path="url(#cp0)">
<path transform="matrix(1,0,0,-1,0,30)" stroke-width="1.3" stroke-linecap="butt" stroke-miterlimit="4" stroke-linejoin="miter" fill="none" stroke="#ffffff" d="M 97.5 2.334 L 2.5 2.334 L 2.5 27.334 L 97.5 27.334 Z "/>
<path transform="matrix(1,0,0,-1,7.3286,9.0903)" d="M 0 0 L 1.866 0 C 2.263 0 2.573 .042 2.796 .123 C 3.02 .205 3.189 .336 3.307 .517 C 3.423 .698 3.481 .894 3.481 1.105 C 3.481 1.416 3.369 1.67 3.143 1.871 C 2.918 2.07 2.562 2.171 2.076 2.171 L 0 2.171 Z M -.869 -3.666 L -.869 2.895 L 2.041 2.895 C 2.625 2.895 3.07 2.837 3.373 2.718 C 3.677 2.602 3.921 2.393 4.103 2.095 C 4.286 1.796 4.376 1.467 4.376 1.105 C 4.376 .64 4.226 .248 3.924 -.071 C 3.623 -.391 3.158 -.593 2.528 -.68 C 2.757 -.791 2.932 -.899 3.052 -1.006 C 3.306 -1.24 3.545 -1.53 3.771 -1.879 L 4.913 -3.666 L 3.821 -3.666 L 2.953 -2.3 C 2.7 -1.906 2.491 -1.604 2.327 -1.396 C 2.163 -1.187 2.016 -1.041 1.886 -.958 C 1.756 -.874 1.624 -.816 1.49 -.783 C 1.391 -.762 1.23 -.751 1.006 -.751 L 0 -.751 L 0 -3.666 Z " fill="#ffffff"/>
<path transform="matrix(1,0,0,-1,13.0835,12.755899)" d="M 0 0 L 0 6.561 L 4.743 6.561 L 4.743 5.787 L .868 5.787 L .868 3.777 L 4.497 3.777 L 4.497 3.008 L .868 3.008 L .868 .775 L 4.896 .775 L 4.896 0 Z " fill="#ffffff"/>
<path transform="matrix(1,0,0,-1,21.0532,12.755899)" d="M 0 0 L -2.542 6.561 L -1.602 6.561 L .103 1.795 C .24 1.413 .355 1.055 .448 .721 C .549 1.079 .667 1.438 .801 1.795 L 2.573 6.561 L 3.458 6.561 L .891 0 Z " fill="#ffffff"/>
<path transform="matrix(1,0,0,-1,0,30)" d="M 25.438 23.805 L 26.306 23.805 L 26.306 17.244 L 25.438 17.244 Z " fill="#ffffff"/>
<path transform="matrix(1,0,0,-1,27.5425,10.647499)" d="M 0 0 L .819 .071 C .857 -.256 .948 -.526 1.089 -.736 C 1.231 -.947 1.452 -1.117 1.749 -1.247 C 2.047 -1.376 2.383 -1.441 2.757 -1.441 C 3.088 -1.441 3.379 -1.392 3.633 -1.293 C 3.888 -1.195 4.075 -1.06 4.199 -.889 C 4.323 -.717 4.385 -.529 4.385 -.327 C 4.385 -.12 4.326 .059 4.207 .213 C 4.087 .367 3.89 .495 3.615 .6 C 3.439 .668 3.05 .775 2.447 .92 C 1.845 1.064 1.422 1.201 1.181 1.329 C .868 1.494 .634 1.697 .481 1.94 C .327 2.183 .25 2.455 .25 2.756 C .25 3.087 .344 3.396 .532 3.685 C .721 3.974 .995 4.192 1.355 4.341 C 1.716 4.49 2.118 4.564 2.56 4.564 C 3.045 4.564 3.474 4.486 3.846 4.33 C 4.217 4.174 4.503 3.942 4.703 3.639 C 4.903 3.334 5.01 2.989 5.024 2.604 L 4.193 2.542 C 4.147 2.956 3.997 3.271 3.739 3.481 C 3.481 3.693 3.099 3.799 2.594 3.799 C 2.07 3.799 1.687 3.703 1.447 3.51 C 1.207 3.319 1.086 3.086 1.086 2.815 C 1.086 2.579 1.172 2.385 1.342 2.233 C 1.508 2.082 1.946 1.925 2.651 1.765 C 3.357 1.606 3.84 1.467 4.104 1.347 C 4.486 1.171 4.767 .948 4.95 .678 C 5.131 .408 5.222 .097 5.222 -.256 C 5.222 -.605 5.122 -.934 4.923 -1.242 C 4.722 -1.551 4.435 -1.791 4.061 -1.963 C 3.686 -2.134 3.264 -2.219 2.796 -2.219 C 2.203 -2.219 1.706 -2.133 1.304 -1.96 C .903 -1.787 .588 -1.527 .36 -1.179 C .132 -.833 .011 -.439 0 0 " fill="#ffffff"/>
<path transform="matrix(1,0,0,-1,33.9683,12.755899)" d="M 0 0 L 0 6.561 L 4.744 6.561 L 4.744 5.787 L .869 5.787 L .869 3.777 L 4.497 3.777 L 4.497 3.008 L .869 3.008 L .869 .775 L 4.896 .775 L 4.896 0 Z " fill="#ffffff"/>
<path transform="matrix(1,0,0,-1,40.9316,11.981001)" d="M 0 0 L 1.4 0 C 1.834 0 2.173 .041 2.419 .121 C 2.665 .202 2.86 .314 3.007 .461 C 3.213 .667 3.373 .944 3.488 1.291 C 3.603 1.639 3.66 2.06 3.66 2.555 C 3.66 3.242 3.547 3.769 3.322 4.137 C 3.097 4.505 2.824 4.753 2.501 4.878 C 2.268 4.967 1.895 5.012 1.379 5.012 L 0 5.012 Z M -.868 -.775 L -.868 5.786 L 1.392 5.786 C 1.902 5.786 2.292 5.755 2.56 5.692 C 2.936 5.606 3.256 5.449 3.521 5.222 C 3.868 4.93 4.126 4.556 4.298 4.102 C 4.47 3.646 4.556 3.126 4.556 2.542 C 4.556 2.043 4.497 1.602 4.381 1.218 C 4.265 .833 4.115 .514 3.934 .261 C 3.751 .009 3.552 -.189 3.335 -.333 C 3.12 -.479 2.858 -.587 2.553 -.662 C 2.248 -.737 1.896 -.775 1.5 -.775 Z " fill="#ffffff"/>
</g>
</g>
<clipPath id="cp1">
<path transform="matrix(.9999994,0,0,-1.0000016,3.73476,26.42132)" d="M 0 0 L 92.6068 0 L 92.6068 12.9441 L 0 12.9441 Z "/>
</clipPath>
<g clip-path="url(#cp1)">
<g id="Layer-1" data-name="Tx">
<clipPath id="cp2">
<path transform="matrix(.9999994,0,0,-1.0000016,3.73476,26.42132)" d="M 1 1 L 91.6068 1 L 91.6068 11.9441 L 1 11.9441 Z "/>
</clipPath>
<g clip-path="url(#cp2)">
<text fill="#ffffff" xml:space="preserve" transform="matrix(.9999994 0 -0 1.0000016 3.73476 26.42132)" font-size="4" font-family="Helvetica" font-weight="bold"><tspan y="-5.08406" x="1 3.444 5.888 8.112 9.224001 10.556001 11.668001 14.556002 16.780003 19.004004 20.560004 21.672003 22.784003 23.896002 26.120003 28.344004 29.676005 31.900006 34.124006 35.456007 37.680006 39.904005 41.016004 42.128004 44.352 46.576 47.688 49.912 52.135999 53.247999 55.471998 57.695997 59.919996">Foxit User , 11:59:07, 12/03/2014</tspan></text>
</g>
</g>
</g>
</g>
</svg>
